<svg width="58" height="48" viewBox="0 0 58 48" fill="none" xmlns="http://www.w3.org/2000/svg">
<path d="M15.7307 36.4484C13.6632 36.4484 11.7576 36.1246 10.0139 35.4769C8.29507 34.8043 6.78801 33.8577 5.49268 32.6371C4.22226 31.4165 3.22586 29.9842 2.50347 28.3401C1.80598 26.6961 1.45724 24.8901 1.45724 22.9222C1.45724 20.9543 1.80598 19.1483 2.50347 17.5042C3.22586 15.8602 4.23472 14.4278 5.53005 13.2072C6.82537 11.9866 8.34489 11.0525 10.0886 10.4049C11.8323 9.73228 13.7504 9.396 15.8428 9.396C18.1595 9.396 20.2395 9.78211 22.0828 10.5543C23.9511 11.3265 25.5204 12.4475 26.7908 13.9172L22.9049 17.5042C21.9583 16.5078 20.9245 15.773 19.8035 15.2997C18.6826 14.8015 17.462 14.5524 16.1418 14.5524C14.8713 14.5524 13.713 14.7517 12.6668 15.1502C11.6206 15.5488 10.7113 16.1217 9.93914 16.869C9.19183 17.6163 8.60644 18.5006 8.18297 19.522C7.78441 20.5433 7.58513 21.6767 7.58513 22.9222C7.58513 24.1428 7.78441 25.2637 8.18297 26.2851C8.60644 27.3064 9.19183 28.2031 9.93914 28.9753C10.7113 29.7227 11.6081 30.2956 12.6294 30.6941C13.6757 31.0927 14.8215 31.292 16.067 31.292C17.2627 31.292 18.421 31.1052 19.542 30.7315C20.6878 30.3329 21.7963 29.6728 22.8675 28.7512L26.3051 33.1229C24.8852 34.194 23.2287 35.0161 21.3355 35.589C19.4673 36.1619 17.599 36.4484 15.7307 36.4484ZM20.775 32.3382V22.5112H26.3051V33.1229L20.775 32.3382Z" fill="url(#paint0_linear_1_4)"/>
<path d="M43.312 47.2268C41.2195 47.2268 39.2143 46.9528 37.2962 46.4048C35.3781 45.8319 33.8337 45.097 32.6629 44.2002L34.718 39.6417C35.8389 40.4388 37.1592 41.0989 38.6787 41.622C40.2231 42.1203 41.78 42.3694 43.3493 42.3694C44.545 42.3694 45.5041 42.2573 46.2265 42.0331C46.9738 41.784 47.5218 41.4477 47.8705 41.0242C48.2193 40.6007 48.3936 40.115 48.3936 39.567C48.3936 38.8695 48.1196 38.3215 47.5716 37.9229C47.0236 37.4994 46.3012 37.1631 45.4044 36.914C44.5077 36.64 43.5112 36.3909 42.4152 36.1667C41.3441 35.9176 40.2605 35.6187 39.1644 35.27C38.0933 34.9212 37.1093 34.4728 36.2126 33.9248C35.3158 33.3768 34.581 32.6544 34.008 31.7576C33.46 30.8609 33.186 29.715 33.186 28.32C33.186 26.8254 33.5846 25.4678 34.3817 24.2472C35.2037 23.0017 36.4243 22.0178 38.0435 21.2954C39.6875 20.5481 41.7426 20.1744 44.2087 20.1744C45.8528 20.1744 47.472 20.3737 49.0662 20.7723C50.6605 21.1459 52.0679 21.7189 53.2885 22.4911L51.4202 27.087C50.1996 26.3895 48.979 25.8789 47.7584 25.555C46.5378 25.2063 45.3421 25.0319 44.1714 25.0319C43.0006 25.0319 42.0416 25.1689 41.2942 25.4429C40.5469 25.7169 40.0114 26.0781 39.6875 26.5265C39.3637 26.95 39.2018 27.4482 39.2018 28.0211C39.2018 28.6937 39.4758 29.2417 40.0238 29.6652C40.5719 30.0638 41.2942 30.3876 42.191 30.6367C43.0878 30.8858 44.0717 31.1349 45.1429 31.384C46.2389 31.6331 47.3225 31.9196 48.3936 32.2434C49.4897 32.5672 50.4861 33.0031 51.3828 33.5512C52.2796 34.0992 53.002 34.8216 53.55 35.7184C54.123 36.6151 54.4094 37.7485 54.4094 39.1186C54.4094 40.5883 53.9984 41.9334 53.1764 43.154C52.3543 44.3746 51.1213 45.3586 49.4772 46.1059C47.8581 46.8532 45.803 47.2268 43.312 47.2268Z" fill="black"/>
<line x1="29.8202" y1="46.7064" x2="29.8202" y2="10.0598" stroke="url(#paint1_linear_1_4)" stroke-width="2.15568"/>
<defs>
<linearGradient id="paint0_linear_1_4" x1="13.6527" y1="0" x2="13.6527" y2="45.9879" gradientUnits="userSpaceOnUse">
<stop stop-color="#FFB627"/>
<stop offset="1" stop-color="#FF6B00"/>
</linearGradient>
<linearGradient id="paint1_linear_1_4" x1="31.3981" y1="28.0238" x2="31.1399" y2="10.0563" gradientUnits="userSpaceOnUse">
<stop stop-color="#FF820C"/>
<stop/>
</linearGradient>
</defs>
</svg>
